<?xml version="1.0" encoding="UTF-8"?>
<!DOCTYPE svg PUBLIC "-//W3C//DTD SVG 1.1//EN" "http://www.w3.org/Graphics/SVG/1.1/DTD/svg11.dtd">
<!-- Creator: CorelDRAW -->
<svg xmlns="http://www.w3.org/2000/svg" xml:space="preserve" width="210mm" height="297mm" version="1.1" style="shape-rendering:geometricPrecision; text-rendering:geometricPrecision; image-rendering:optimizeQuality; fill-rule:evenodd; clip-rule:evenodd"
viewBox="0 0 21000 29700"
 xmlns:xlink="http://www.w3.org/1999/xlink"
 xmlns:xodm="http://www.corel.com/coreldraw/odm/2003">
 <defs>
  <style type="text/css">
   <![CDATA[
    .str0 {stroke:#5F969A;stroke-width:20;stroke-miterlimit:22.9256}
    .fil0 {fill:#5F969A}
    .fil1 {fill:#FEFEFE;fill-rule:nonzero}
   ]]>
  </style>
 </defs>
 <g id="Layer_x0020_1">
  <metadata id="CorelCorpID_0Corel-Layer"/>
  <g id="_2822184174704">
   <polygon class="fil0 str0" points="7230.42,7770.08 8483.91,7770.08 8231.48,9019.22 6977.99,9019.22 "/>
   <polygon class="fil0 str0" points="8231.48,9019.22 9489.32,9019.22 9236.88,10268.35 7983.39,10268.35 "/>
   <polygon class="fil0 str0" points="9741.76,7770.08 9489.32,9019.22 10742.81,9019.22 10995.25,7770.08 "/>
   <polygon class="fil0 str0" points="10742.81,9019.22 10494.72,10268.35 11748.21,10268.35 12000.65,9019.22 "/>
   <polygon class="fil0 str0" points="12000.65,9019.22 12253.09,7770.08 13506.58,7770.08 13254.14,9019.22 "/>
   <polygon class="fil0 str0" points="11748.21,10268.35 11495.77,11517.49 12753.61,11517.49 13001.7,10268.35 "/>
   <polygon class="fil0 str0" points="11495.77,11517.49 10242.28,11517.49 9990.26,12764.53 11243.75,12764.53 "/>
  </g>
  <polygon class="fil1" points="5921.83,7368.43 6107.04,6484.37 6761.44,6484.37 6730.58,6632.54 6257.47,6632.54 6214.05,6832.56 6672.54,6832.56 6641.68,6980.73 6181.74,6980.73 6129.47,7220.26 6642.91,7220.26 6612.04,7368.43 "/>
  <polygon id="_1" class="fil1" points="6750.33,7368.43 6935.54,6484.37 7117.04,6484.37 6962.91,7220.26 7413.38,7220.26 7382.51,7368.43 "/>
  <polygon id="_2" class="fil1" points="7492.2,7368.43 7677.4,6484.37 7858.91,6484.37 7673.9,7368.43 "/>
  <polygon id="_3" class="fil1" points="8227.27,7368.43 8045.56,7368.43 8199.69,6632.54 7940.2,6632.54 7969.83,6484.37 8666.21,6484.37 8636.58,6632.54 8381.4,6632.54 "/>
  <polygon id="_4" class="fil1" points="8596.86,7368.43 8782.07,6484.37 9436.47,6484.37 9405.61,6632.54 8932.5,6632.54 8889.08,6832.56 9347.57,6832.56 9316.71,6980.73 8856.77,6980.73 8804.5,7220.26 9317.94,7220.26 9287.07,7368.43 "/>
  <polygon id="_5" class="fil1" points="10273.41,7368.43 10100.55,7368.43 10067.83,6629.86 9927.69,7368.43 9763.68,7368.43 9948.68,6484.37 10207.97,6484.37 10235.14,7092.06 10513.15,6484.37 10774.71,6484.37 10613.58,7368.43 10448.74,7368.43 10602.47,6635.01 "/>
  <path id="_6" class="fil1" d="M10848.79 7021.47c0,-52.27 7.82,-107.42 23.46,-165.45 20.58,-77.79 51.86,-145.08 93.84,-202.29 41.98,-57.21 95.07,-102.27 158.87,-135.61 64,-33.13 136.64,-49.8 218.34,-49.8 109.47,0 197.76,33.95 265.05,102.07 67.29,68.11 101.04,158.25 101.04,270.61 0,93.43 -21.81,183.77 -65.65,271.02 -43.83,87.46 -103.51,154.75 -178.62,201.88 -75.11,47.12 -160.1,70.58 -255.17,70.58 -82.32,0 -151.46,-18.73 -207.44,-56.18 -55.76,-37.45 -95.48,-83.75 -118.74,-139.11 -23.25,-55.36 -34.98,-111.33 -34.98,-167.72zm180.27 -3.49c0,60.91 18.52,111.94 55.36,152.89 37.04,41.16 85.6,61.74 145.9,61.74 48.98,0 96.1,-16.26 141.17,-48.56 45.27,-32.52 82.52,-81.7 112.15,-147.55 29.43,-66.06 44.25,-130.06 44.25,-192.62 0,-69.76 -18.73,-124.5 -55.98,-164.22 -37.45,-39.71 -84.99,-59.47 -142.81,-59.47 -88.7,0 -160.93,41.57 -216.7,124.5 -55.56,83.14 -83.34,174.1 -83.34,273.29z"/>
  <polygon id="_7" class="fil1" points="12137.02,7368.43 11955.31,7368.43 12109.44,6632.54 11849.95,6632.54 11879.58,6484.37 12575.96,6484.37 12546.33,6632.54 12291.15,6632.54 "/>
  <path id="_8" class="fil1" d="M12541.18 7021.47c0,-52.27 7.82,-107.42 23.46,-165.45 20.58,-77.79 51.86,-145.08 93.84,-202.29 41.98,-57.21 95.07,-102.27 158.87,-135.61 64,-33.13 136.64,-49.8 218.34,-49.8 109.47,0 197.76,33.95 265.05,102.07 67.29,68.11 101.04,158.25 101.04,270.61 0,93.43 -21.81,183.77 -65.65,271.02 -43.83,87.46 -103.51,154.75 -178.62,201.88 -75.11,47.12 -160.1,70.58 -255.17,70.58 -82.32,0 -151.46,-18.73 -207.44,-56.18 -55.76,-37.45 -95.48,-83.75 -118.74,-139.11 -23.25,-55.36 -34.98,-111.33 -34.98,-167.72zm180.27 -3.49c0,60.91 18.52,111.94 55.36,152.89 37.04,41.16 85.6,61.74 145.9,61.74 48.98,0 96.1,-16.26 141.17,-48.56 45.27,-32.52 82.52,-81.7 112.15,-147.55 29.43,-66.06 44.25,-130.06 44.25,-192.62 0,-69.76 -18.73,-124.5 -55.98,-164.22 -37.45,-39.71 -84.99,-59.47 -142.81,-59.47 -88.7,0 -160.93,41.57 -216.7,124.5 -55.56,83.14 -83.34,174.1 -83.34,273.29z"/>
  <path id="_9" class="fil1" d="M13630.21 7368.43l-181.71 0 185.21 -884.06 392.23 0c67.49,0 119.97,7 157.63,20.78 37.45,14 67.7,39.31 90.96,76.35 23.04,37.04 34.57,81.7 34.57,134.38 0,75.32 -22.43,137.26 -67.5,186.03 -44.86,48.98 -112.98,79.23 -204.14,90.75 23.25,20.99 45.07,48.57 65.65,82.73 40.54,69.14 85.81,166.89 135.61,293.04l-195.09 0c-15.64,-49.8 -46.51,-127.38 -92.4,-232.95 -24.9,-57 -51.44,-95.49 -79.63,-115.04 -17.29,-11.73 -47.54,-17.49 -90.55,-17.49l-74.29 0 -76.55 365.48zm104.13 -497.59l96.51 0c97.75,0 162.57,-5.76 194.47,-17.49 32.1,-11.73 57,-30.05 75.11,-55.15 18.11,-24.91 27.16,-51.25 27.16,-78.62 0,-32.3 -12.96,-56.38 -39.1,-72.64 -16.05,-9.67 -50.83,-14.4 -104.33,-14.4l-200.02 0 -49.8 238.3z"/>
  <path id="_10" class="fil1" d="M14363.63 7083.62l172.86 -9.05c2.47,54.94 11.93,91.98 28.4,111.12 26.54,31.28 75.52,46.92 147.13,46.92 59.48,0 102.69,-10.7 129.24,-32.1 26.54,-21.4 39.72,-47.13 39.72,-77.38 0,-26.13 -10.91,-48.36 -32.52,-66.47 -15.23,-13.37 -57.21,-34.98 -125.73,-64.61 -68.53,-29.84 -118.54,-54.74 -150.02,-74.7 -31.69,-19.97 -56.39,-45.89 -74.5,-77.79 -18.11,-31.9 -27.16,-69.15 -27.16,-111.74 0,-74.7 26.96,-136.65 80.87,-185.83 53.71,-49.18 131.71,-73.67 233.98,-73.67 103.72,0 183.97,24.28 240.77,73.05 57,48.77 88.28,113.6 93.84,194.47l-174.09 7.82c-4.33,-42.18 -19.76,-74.49 -45.9,-97.13 -25.92,-22.43 -64.61,-33.75 -115.65,-33.75 -50.21,0 -86.02,8.85 -107.42,26.55 -21.61,17.7 -32.31,40.13 -32.31,67.08 0,25.52 9.88,46.31 29.43,62.98 19.76,16.87 63.38,39.92 130.68,69.35 101.65,44.03 166.27,79.63 194.05,107 41.37,40.34 61.94,91.99 61.94,155.37 0,78.2 -30.86,144.88 -92.6,200.23 -61.74,55.36 -147.55,83.14 -257.64,83.14 -75.94,0 -141.79,-12.76 -197.56,-38.27 -55.56,-25.52 -94.87,-60.92 -117.92,-106.19 -22.84,-45.27 -33.54,-97.54 -31.89,-156.4z"/>
 </g>
</svg>
